<mxfile host="app.diagrams.net" modified="2024-06-14T14:35:34.697Z" agent="Mozilla/5.0 (Windows NT 10.0; Win64; x64) AppleWebKit/537.36 (KHTML, like Gecko) Chrome/125.0.0.0 Safari/537.36 Edg/125.0.0.0" etag="3HDqQQtMY0aJcTDYNeTH" version="24.5.4" type="github">
  <diagram name="Pagina-1" id="d2Lt8vPX4prabWJ2Xl2k">
    <mxGraphModel dx="1386" dy="759" grid="1" gridSize="10" guides="1" tooltips="1" connect="1" arrows="1" fold="1" page="1" pageScale="1" pageWidth="827" pageHeight="1169" math="0" shadow="0">
      <root>
        <mxCell id="0" />
        <mxCell id="1" parent="0" />
        <mxCell id="DOPexPxkkOPl3pUw1LUv-3" value="" style="rounded=0;whiteSpace=wrap;html=1;" vertex="1" parent="1">
          <mxGeometry x="94" y="115" width="180" height="170" as="geometry" />
        </mxCell>
        <mxCell id="DOPexPxkkOPl3pUw1LUv-2" value="Basisregistratie_1" style="rounded=0;whiteSpace=wrap;html=1;" vertex="1" parent="1">
          <mxGeometry x="104" y="105" width="120" height="30" as="geometry" />
        </mxCell>
        <mxCell id="DOPexPxkkOPl3pUw1LUv-5" value="Register_1_1" style="rounded=1;whiteSpace=wrap;html=1;" vertex="1" parent="1">
          <mxGeometry x="104" y="155" width="120" height="30" as="geometry" />
        </mxCell>
        <mxCell id="DOPexPxkkOPl3pUw1LUv-6" value="Register_1_n1" style="rounded=1;whiteSpace=wrap;html=1;" vertex="1" parent="1">
          <mxGeometry x="104" y="235" width="120" height="30" as="geometry" />
        </mxCell>
        <mxCell id="DOPexPxkkOPl3pUw1LUv-7" value="..." style="rounded=1;whiteSpace=wrap;html=1;" vertex="1" parent="1">
          <mxGeometry x="104" y="195" width="120" height="30" as="geometry" />
        </mxCell>
        <mxCell id="DOPexPxkkOPl3pUw1LUv-9" value="" style="rounded=0;whiteSpace=wrap;html=1;" vertex="1" parent="1">
          <mxGeometry x="614" y="115" width="180" height="170" as="geometry" />
        </mxCell>
        <mxCell id="DOPexPxkkOPl3pUw1LUv-10" value="Basisregistratie_8" style="rounded=0;whiteSpace=wrap;html=1;" vertex="1" parent="1">
          <mxGeometry x="624" y="105" width="120" height="30" as="geometry" />
        </mxCell>
        <mxCell id="DOPexPxkkOPl3pUw1LUv-11" value="Register_8_1" style="rounded=1;whiteSpace=wrap;html=1;" vertex="1" parent="1">
          <mxGeometry x="624" y="155" width="120" height="30" as="geometry" />
        </mxCell>
        <mxCell id="DOPexPxkkOPl3pUw1LUv-12" value="Register_8_n8" style="rounded=1;whiteSpace=wrap;html=1;" vertex="1" parent="1">
          <mxGeometry x="624" y="235" width="120" height="30" as="geometry" />
        </mxCell>
        <mxCell id="DOPexPxkkOPl3pUw1LUv-13" value="..." style="rounded=1;whiteSpace=wrap;html=1;" vertex="1" parent="1">
          <mxGeometry x="624" y="195" width="120" height="30" as="geometry" />
        </mxCell>
        <mxCell id="DOPexPxkkOPl3pUw1LUv-14" value="" style="rounded=0;whiteSpace=wrap;html=1;" vertex="1" parent="1">
          <mxGeometry x="354" y="115" width="180" height="170" as="geometry" />
        </mxCell>
        <mxCell id="DOPexPxkkOPl3pUw1LUv-15" value="..." style="rounded=0;whiteSpace=wrap;html=1;" vertex="1" parent="1">
          <mxGeometry x="364" y="105" width="120" height="30" as="geometry" />
        </mxCell>
        <mxCell id="DOPexPxkkOPl3pUw1LUv-16" value="..." style="rounded=1;whiteSpace=wrap;html=1;" vertex="1" parent="1">
          <mxGeometry x="364" y="155" width="120" height="30" as="geometry" />
        </mxCell>
        <mxCell id="DOPexPxkkOPl3pUw1LUv-17" value="..." style="rounded=1;whiteSpace=wrap;html=1;" vertex="1" parent="1">
          <mxGeometry x="364" y="235" width="120" height="30" as="geometry" />
        </mxCell>
        <mxCell id="DOPexPxkkOPl3pUw1LUv-18" value="..." style="rounded=1;whiteSpace=wrap;html=1;" vertex="1" parent="1">
          <mxGeometry x="364" y="195" width="120" height="30" as="geometry" />
        </mxCell>
        <mxCell id="DOPexPxkkOPl3pUw1LUv-19" value="" style="shape=trapezoid;perimeter=trapezoidPerimeter;whiteSpace=wrap;html=1;fixedSize=1;rotation=-180;" vertex="1" parent="1">
          <mxGeometry x="94" y="285" width="180" height="50" as="geometry" />
        </mxCell>
        <mxCell id="DOPexPxkkOPl3pUw1LUv-20" value="&lt;div&gt;Basisregistratie&lt;/div&gt;&lt;div&gt;Informatiemodel 1&lt;/div&gt;" style="text;html=1;align=center;verticalAlign=middle;whiteSpace=wrap;rounded=0;" vertex="1" parent="1">
          <mxGeometry x="129" y="285" width="110" height="60" as="geometry" />
        </mxCell>
        <mxCell id="DOPexPxkkOPl3pUw1LUv-22" value="" style="shape=trapezoid;perimeter=trapezoidPerimeter;whiteSpace=wrap;html=1;fixedSize=1;rotation=-180;" vertex="1" parent="1">
          <mxGeometry x="614" y="285" width="180" height="50" as="geometry" />
        </mxCell>
        <mxCell id="DOPexPxkkOPl3pUw1LUv-23" value="&lt;div&gt;Basisregistratie&lt;/div&gt;&lt;div&gt;Informatiemodel 8&lt;/div&gt;" style="text;html=1;align=center;verticalAlign=middle;whiteSpace=wrap;rounded=0;" vertex="1" parent="1">
          <mxGeometry x="649" y="285" width="110" height="60" as="geometry" />
        </mxCell>
        <mxCell id="DOPexPxkkOPl3pUw1LUv-24" value="" style="shape=trapezoid;perimeter=trapezoidPerimeter;whiteSpace=wrap;html=1;fixedSize=1;rotation=-180;" vertex="1" parent="1">
          <mxGeometry x="354" y="285" width="180" height="50" as="geometry" />
        </mxCell>
        <mxCell id="DOPexPxkkOPl3pUw1LUv-25" value="&lt;div&gt;...&lt;/div&gt;" style="text;html=1;align=center;verticalAlign=middle;whiteSpace=wrap;rounded=0;" vertex="1" parent="1">
          <mxGeometry x="389" y="285" width="110" height="60" as="geometry" />
        </mxCell>
        <mxCell id="DOPexPxkkOPl3pUw1LUv-27" value="LIM_1" style="shape=hexagon;perimeter=hexagonPerimeter2;whiteSpace=wrap;html=1;fixedSize=1;" vertex="1" parent="1">
          <mxGeometry x="239" y="395" width="120" height="80" as="geometry" />
        </mxCell>
        <mxCell id="DOPexPxkkOPl3pUw1LUv-28" value="LIM_n" style="shape=hexagon;perimeter=hexagonPerimeter2;whiteSpace=wrap;html=1;fixedSize=1;" vertex="1" parent="1">
          <mxGeometry x="524" y="395" width="120" height="80" as="geometry" />
        </mxCell>
        <mxCell id="DOPexPxkkOPl3pUw1LUv-29" value="" style="endArrow=classic;html=1;rounded=0;exitX=0;exitY=0.5;exitDx=0;exitDy=0;entryX=0;entryY=0.5;entryDx=0;entryDy=0;" edge="1" parent="1" source="DOPexPxkkOPl3pUw1LUv-3" target="DOPexPxkkOPl3pUw1LUv-27">
          <mxGeometry width="50" height="50" relative="1" as="geometry">
            <mxPoint x="414" y="335" as="sourcePoint" />
            <mxPoint x="464" y="285" as="targetPoint" />
            <Array as="points">
              <mxPoint x="54" y="200" />
              <mxPoint x="54" y="435" />
              <mxPoint x="94" y="435" />
            </Array>
          </mxGeometry>
        </mxCell>
        <mxCell id="DOPexPxkkOPl3pUw1LUv-30" value="" style="endArrow=classic;html=1;rounded=0;exitX=0.409;exitY=0.833;exitDx=0;exitDy=0;exitPerimeter=0;entryX=0;entryY=0.5;entryDx=0;entryDy=0;" edge="1" parent="1" source="DOPexPxkkOPl3pUw1LUv-20" target="DOPexPxkkOPl3pUw1LUv-27">
          <mxGeometry width="50" height="50" relative="1" as="geometry">
            <mxPoint x="414" y="335" as="sourcePoint" />
            <mxPoint x="464" y="285" as="targetPoint" />
            <Array as="points">
              <mxPoint x="174" y="435" />
            </Array>
          </mxGeometry>
        </mxCell>
        <mxCell id="DOPexPxkkOPl3pUw1LUv-34" value="" style="endArrow=classic;html=1;rounded=0;entryX=0.5;entryY=0;entryDx=0;entryDy=0;" edge="1" parent="1" target="DOPexPxkkOPl3pUw1LUv-27">
          <mxGeometry width="50" height="50" relative="1" as="geometry">
            <mxPoint x="444" y="335" as="sourcePoint" />
            <mxPoint x="464" y="285" as="targetPoint" />
          </mxGeometry>
        </mxCell>
        <mxCell id="DOPexPxkkOPl3pUw1LUv-35" value="" style="endArrow=classic;html=1;rounded=0;entryX=0.967;entryY=0.413;entryDx=0;entryDy=0;entryPerimeter=0;exitX=1;exitY=0.5;exitDx=0;exitDy=0;" edge="1" parent="1" source="DOPexPxkkOPl3pUw1LUv-22" target="DOPexPxkkOPl3pUw1LUv-27">
          <mxGeometry width="50" height="50" relative="1" as="geometry">
            <mxPoint x="414" y="335" as="sourcePoint" />
            <mxPoint x="464" y="285" as="targetPoint" />
          </mxGeometry>
        </mxCell>
        <mxCell id="DOPexPxkkOPl3pUw1LUv-36" value="TDM_1" style="shape=parallelogram;perimeter=parallelogramPerimeter;whiteSpace=wrap;html=1;fixedSize=1;" vertex="1" parent="1">
          <mxGeometry x="239" y="525" width="120" height="60" as="geometry" />
        </mxCell>
        <mxCell id="DOPexPxkkOPl3pUw1LUv-37" value="TDM_1" style="shape=parallelogram;perimeter=parallelogramPerimeter;whiteSpace=wrap;html=1;fixedSize=1;" vertex="1" parent="1">
          <mxGeometry x="524" y="525" width="120" height="60" as="geometry" />
        </mxCell>
        <mxCell id="DOPexPxkkOPl3pUw1LUv-38" value="" style="endArrow=classic;html=1;rounded=0;exitX=0.5;exitY=1;exitDx=0;exitDy=0;entryX=0.5;entryY=0;entryDx=0;entryDy=0;" edge="1" parent="1" source="DOPexPxkkOPl3pUw1LUv-27" target="DOPexPxkkOPl3pUw1LUv-36">
          <mxGeometry width="50" height="50" relative="1" as="geometry">
            <mxPoint x="414" y="335" as="sourcePoint" />
            <mxPoint x="464" y="285" as="targetPoint" />
          </mxGeometry>
        </mxCell>
        <mxCell id="DOPexPxkkOPl3pUw1LUv-39" value="" style="endArrow=classic;html=1;rounded=0;exitX=0.5;exitY=1;exitDx=0;exitDy=0;entryX=0.5;entryY=0;entryDx=0;entryDy=0;" edge="1" parent="1" source="DOPexPxkkOPl3pUw1LUv-28" target="DOPexPxkkOPl3pUw1LUv-37">
          <mxGeometry width="50" height="50" relative="1" as="geometry">
            <mxPoint x="414" y="335" as="sourcePoint" />
            <mxPoint x="464" y="285" as="targetPoint" />
          </mxGeometry>
        </mxCell>
        <mxCell id="DOPexPxkkOPl3pUw1LUv-40" value="MvB" style="rounded=1;whiteSpace=wrap;html=1;" vertex="1" parent="1">
          <mxGeometry x="54" y="25" width="760" height="20" as="geometry" />
        </mxCell>
        <mxCell id="DOPexPxkkOPl3pUw1LUv-41" value="MvB" style="rounded=1;whiteSpace=wrap;html=1;" vertex="1" parent="1">
          <mxGeometry x="14" y="25" width="30" height="430" as="geometry" />
        </mxCell>
      </root>
    </mxGraphModel>
  </diagram>
</mxfile>
